# xmcd
#
# Track frame offsets: 
#        150
#        16271
#        31725
#        50200
#        72234
#
# Disc length: 1204 seconds
#
# Revision: 0
# Processed by: cddbd v1.5.2PL0 Copyright (c) Steve Scherf et al.
# Submitted via: ExactAudioCopy v0.95a4
#
DISCID=3b04b205
DTITLE=Vintage Trouble - Chapter II - EP II
DYEAR=2019
DGENRE=Blues
TTITLE0=Everyone Is Everyone
TTITLE1=How It Is
TTITLE2=Don't Stop Forever
TTITLE3=So Sorry
TTITLE4=One More Last Goodbye
EXTD=
EXTT0=
EXTT1=
EXTT2=
EXTT3=
EXTT4=
PLAYORDER=
